<svg data-v-decfdd8a="" version="1.0" xmlns="http://www.w3.org/2000/svg" xmlns:xlink="http://www.w3.org/1999/xlink" width="100%" height="100%" viewBox="0 0 340.000000 250.000000" preserveAspectRatio="xMidYMid meet" color-interpolation-filters="sRGB" style="margin: auto;"> <rect data-v-decfdd8a="" x="0" y="0" width="100%" height="100%" fill="#FFFFFF" fill-opacity="1" class="background"></rect> <rect data-v-decfdd8a="" x="0" y="0" width="100%" height="100%" fill="url(#watermark)" fill-opacity="1" class="watermarklayer"></rect> <g data-v-decfdd8a="" fill="#FFFFFF" class="bordersvg b-d1" transform="translate(128.16500091552734,91.95999908447266)"><rect fill-opacity="0" stroke="#FFFFFF" stroke-width="2" x="8" y="8" width="75.66999816894531" height="58.08000183105469"></rect> <rect fill-opacity="0" stroke="#FFFFFF" stroke-width="2" x="0" y="0" width="75.66999816894531" height="58.08000183105469"></rect> <g><g><rect data-gra="graph-name-bg" stroke-width="2" class="i-icon-bg" x="0" y="0" width="75.66999816894531" height="58.079999923706055" fill-opacity="0"></rect> <!----> <!----> </g> <g transform="translate(18,18)"><g data-gra="path-name" fill-rule="" class="tp-name"><g transform="scale(1)"><g><path d="M12.56 0L2.15 0 2.15-26.08 11.74-26.08Q14.44-26.08 16.34-25.58 18.24-25.08 19.44-24.16 20.64-23.25 21.18-21.94 21.73-20.64 21.73-19.03L21.73-19.03Q21.73-18.15 21.48-17.34 21.23-16.52 20.69-15.8 20.15-15.09 19.31-14.51 18.47-13.93 17.29-13.5L17.29-13.5Q19.87-12.87 21.1-11.46 22.34-10.06 22.34-7.86L22.34-7.86Q22.34-6.19 21.69-4.76 21.05-3.33 19.81-2.26 18.56-1.2 16.74-0.6 14.91 0 12.56 0L12.56 0ZM12.42-11.06L8.2-11.06 8.2-4.56 12.46-4.56Q13.66-4.56 14.42-4.87 15.18-5.17 15.61-5.66 16.04-6.14 16.2-6.75 16.36-7.36 16.36-7.98L16.36-7.98Q16.36-8.7 16.17-9.27 15.98-9.84 15.53-10.24 15.07-10.63 14.32-10.85 13.57-11.06 12.42-11.06L12.42-11.06ZM8.2-21.55L8.2-15.11 11.35-15.11Q12.35-15.11 13.16-15.25 13.96-15.39 14.52-15.75 15.09-16.11 15.38-16.74 15.68-17.36 15.68-18.31L15.68-18.31Q15.68-19.24 15.45-19.86 15.21-20.48 14.73-20.85 14.25-21.23 13.5-21.39 12.76-21.55 11.74-21.55L11.74-21.55 8.2-21.55ZM36.05 0L25.63 0 25.63-26.08 35.22-26.08Q37.93-26.08 39.82-25.58 41.72-25.08 42.92-24.16 44.12-23.25 44.67-21.94 45.21-20.64 45.21-19.03L45.21-19.03Q45.21-18.15 44.96-17.34 44.71-16.52 44.17-15.8 43.64-15.09 42.8-14.51 41.95-13.93 40.77-13.5L40.77-13.5Q43.35-12.87 44.59-11.46 45.82-10.06 45.82-7.86L45.82-7.86Q45.82-6.19 45.18-4.76 44.53-3.33 43.29-2.26 42.04-1.2 40.22-0.6 38.39 0 36.05 0L36.05 0ZM35.91-11.06L31.68-11.06 31.68-4.56 35.94-4.56Q37.14-4.56 37.9-4.87 38.66-5.17 39.09-5.66 39.52-6.14 39.68-6.75 39.84-7.36 39.84-7.98L39.84-7.98Q39.84-8.7 39.65-9.27 39.47-9.84 39.01-10.24 38.55-10.63 37.8-10.85 37.05-11.06 35.91-11.06L35.91-11.06ZM31.68-21.55L31.68-15.11 34.83-15.11Q35.83-15.11 36.64-15.25 37.44-15.39 38.01-15.75 38.57-16.11 38.87-16.74 39.16-17.36 39.16-18.31L39.16-18.31Q39.16-19.24 38.93-19.86 38.7-20.48 38.21-20.85 37.73-21.23 36.99-21.39 36.25-21.55 35.22-21.55L35.22-21.55 31.68-21.55Z" transform="translate(-2.1500000953674316, 26.079999923706055)"></path></g> <!----> <!----> <!----> <!----> <!----> <!----> <!----></g></g> <!----></g></g></g><defs v-gra="od"></defs></svg>
